<svg xmlns="http://www.w3.org/2000/svg" viewBox="0 0 142.99 142.99"><defs><style>.cls-1{fill:#fdddb3;stroke:#fff;stroke-miterlimit:10;stroke-width:3.6px;}.cls-2{fill:#8c7b68;}.cls-3{fill:#b7a694;}.cls-4{fill:#2c3032;}.cls-5{fill:#ffb8aa;}.cls-6{fill:#626668;}</style></defs><g id="Layer_1" data-name="Layer 1"><circle class="cls-1" cx="71.5" cy="71.5" r="69.7"/></g><g id="Layer_4" data-name="Layer 4"><path class="cls-2" d="M49.88,59.6a5.09,5.09,0,0,0,2.57-3.43,16.3,16.3,0,0,0,.58-6.5c-1.18-7.59-5.85-10.06-10.8-7.8s-8.29,8.4-7.11,16A10.81,10.81,0,0,0,37.51,63a2.57,2.57,0,0,0,3.22.79Z" transform="translate(-0.5 -0.5)"/><path class="cls-3" d="M36.08,59c-1.18-7.59,2.16-13.72,7.11-16C46.13,41.68,49,42,51,44.09c-2.1-3.08-5.38-3.78-8.8-2.22-4.95,2.26-8.29,8.4-7.11,16A10.81,10.81,0,0,0,37.51,63a2.86,2.86,0,0,0,.42.43A10.55,10.55,0,0,1,36.08,59Z" transform="translate(-0.5 -0.5)"/><path class="cls-4" d="M85.4,76.64a70.14,70.14,0,0,1,9.15-2.06,52.89,52.89,0,0,1,9.35-.71,26.59,26.59,0,0,1,9.39,1.67,14.67,14.67,0,0,1,4.2,2.56,8.69,8.69,0,0,1,2.83,4.24,5.65,5.65,0,0,1,0,2.71,7.77,7.77,0,0,1-1.08,2.35,16.17,16.17,0,0,1-3.35,3.45c-2.45,2-5.16,3.45-7.61,5.15a6.86,6.86,0,0,0-1.56,1.36.77.77,0,0,0-.13.64,2.92,2.92,0,0,0,.44.8,14.1,14.1,0,0,0,3.43,2.72,62.2,62.2,0,0,0,8.13,4h0a.25.25,0,0,1,.14.34.25.25,0,0,1-.33.14,62.31,62.31,0,0,1-8.38-3.78,14.77,14.77,0,0,1-3.8-2.82,3.5,3.5,0,0,1-.68-1.17,1.86,1.86,0,0,1,.23-1.54A7.43,7.43,0,0,1,107.55,95c2.49-1.86,5.08-3.43,7.33-5.38a14.69,14.69,0,0,0,2.89-3.19,4.42,4.42,0,0,0,.69-3.62,6.79,6.79,0,0,0-2.34-3.13,12.31,12.31,0,0,0-3.65-2,24.33,24.33,0,0,0-8.58-1.18,52,52,0,0,0-8.83,1,67.93,67.93,0,0,0-8.6,2.29h0a1.66,1.66,0,1,1-1.07-3.15Z" transform="translate(-0.5 -0.5)"/><path class="cls-3" d="M88.15,78.15c0,12.95-14.47,15.3-32.32,15.3s-32.32-7.4-32.32-15.3c0-12.94,22.85-27.91,40.7-27.91S88.15,65.21,88.15,78.15Z" transform="translate(-0.5 -0.5)"/><path class="cls-2" d="M75,52.56a34.35,34.35,0,0,1,4.26,17.2c0,12.95-14.47,15.3-32.32,15.3-9.05,0-17.23-1.9-23.09-4.81,2.27,7.06,15.72,13.2,32,13.2,17.85,0,32.32-2.35,32.32-15.3C88.15,68.29,84.6,57.25,75,52.56Z" transform="translate(-0.5 -0.5)"/><path class="cls-2" d="M53,64a5.14,5.14,0,0,0,4-1.63,16.38,16.38,0,0,0,3.82-5.29c2.88-7.13.12-11.64-5.29-12.23S44,47.8,41.16,54.93a10.94,10.94,0,0,0-.58,5.64A2.6,2.6,0,0,0,43,62.9Z" transform="translate(-0.5 -0.5)"/><path class="cls-3" d="M41.4,56.41c2.87-7.12,8.88-10.68,14.29-10.09,3.21.35,5.47,2.08,6.19,4.92-.22-3.72-2.69-6-6.43-6.41-5.4-.58-11.41,3-14.29,10.1a10.94,10.94,0,0,0-.58,5.64,2.59,2.59,0,0,0,.15.58A10.37,10.37,0,0,1,41.4,56.41Z" transform="translate(-0.5 -0.5)"/><path class="cls-5" d="M52.72,64a13.71,13.71,0,0,0,4-4.91c2-4.91.08-8-3.64-8.43s-7.87,2.05-9.85,7a8.35,8.35,0,0,0-.09,5.34Z" transform="translate(-0.5 -0.5)"/><path class="cls-2" d="M40.21,71.08a2.78,2.78,0,1,1-2.78-2.77A2.78,2.78,0,0,1,40.21,71.08Z" transform="translate(-0.5 -0.5)"/><path class="cls-4" d="M39.35,70.77a2.24,2.24,0,1,1-2.23-2.24A2.23,2.23,0,0,1,39.35,70.77Z" transform="translate(-0.5 -0.5)"/><path d="M39,69.52v.09a2.23,2.23,0,0,1-4.09,1.24,2.23,2.23,0,0,0,4.46-.08A2.32,2.32,0,0,0,39,69.52Z" transform="translate(-0.5 -0.5)"/><path class="cls-6" d="M37.41,69.28c.16.37-.29.37-.75.56s-.76.53-.92.16a.83.83,0,0,1,.54-1A.84.84,0,0,1,37.41,69.28Z" transform="translate(-0.5 -0.5)"/></g></svg>