<svg xmlns="http://www.w3.org/2000/svg" viewBox="0 0 142.99 142.99"><defs><style>.cls-1{fill:#fdddb3;stroke:#fff;stroke-miterlimit:10;stroke-width:3.6px;}.cls-2{fill:#e05146;}.cls-3{fill:#b6575d;}.cls-4{fill:#f99f1b;}.cls-5{fill:#fcb552;}.cls-6{fill:#f28a21;}</style></defs><g id="Layer_1" data-name="Layer 1"><circle class="cls-1" cx="71.5" cy="71.5" r="69.7"/></g><g id="Layer_3" data-name="Layer 3"><path class="cls-2" d="M19.78,66.67C25,61.79,40.45,48.49,60,41.65l.23-.06c2-.26,28.44-3.36,63.28,14.83a2,2,0,0,1,.8,2.4,1.86,1.86,0,0,1-.17.41c-3.43,6.07-15.11,25.09-32.38,35a1.12,1.12,0,0,1-.37.14c-2.31.46-24.65,4-71.41-24.51a2.11,2.11,0,0,1-.69-2.46A1.86,1.86,0,0,1,19.78,66.67Z" transform="translate(-0.5 -0.5)"/><path class="cls-3" d="M123.55,56.42q-2.13-1.11-4.22-2.12a105,105,0,0,1-15.44,18.2c-7.76,7.14-17.32,10.23-26.78,8.66-10.64-1.74-27.32-6.79-50.69-20.22-2.92,2.34-5.19,4.36-6.64,5.73a2.2,2.2,0,0,0-.32,2.58,1.57,1.57,0,0,0,.55.59c46.77,28.51,69.12,25,71.41,24.51a1,1,0,0,0,.37-.14c17.27-9.89,28.94-28.89,32.38-35a2.22,2.22,0,0,0-.31-2.59A1.6,1.6,0,0,0,123.55,56.42Z" transform="translate(-0.5 -0.5)"/><path class="cls-4" d="M90.68,90.58c14.1-4.39,28-24.3,33.72-31.95a2,2,0,0,0-.86-2.21l-.16-.09c-5.31,7.14-19.4,27.51-33.16,31.8-14.77,4.61-58.59-16.07-70.5-21.4a2.22,2.22,0,0,0-.22,2.58c11.21,5,46.54,22.07,65,22.07A20.82,20.82,0,0,0,90.68,90.58Z" transform="translate(-0.5 -0.5)"/><path class="cls-5" d="M89.44,92.39s-5,13.48-4.58,14.15c.35.51,1.63,1.47,2.23.3.45-.88,3.22-14.15,3.22-14.15Z" transform="translate(-0.5 -0.5)"/><path class="cls-6" d="M89.67,92.47c-.36,1.72-2.74,13.1-3.17,13.92a1,1,0,0,1-1.47.35c.49.51,1.54,1.14,2.06.11S90.31,92.7,90.31,92.7Z" transform="translate(-0.5 -0.5)"/><path class="cls-5" d="M90,92.63s-2.28,14.68-1.69,15.16c.43.37,1.86.91,2.21-.42.26-1,.39-14.73.39-14.73Z" transform="translate(-0.5 -0.5)"/><path class="cls-6" d="M90.23,92.64c0,1.78-.13,13.57-.39,14.5a1,1,0,0,1-1.34.82c.56.33,1.7.59,2-.57s.39-14.73.39-14.73Z" transform="translate(-0.5 -0.5)"/><path class="cls-5" d="M90.85,92.79s0,15,.61,15.32c.48.26,2,.42,2.11-1,.11-1-1.83-14.55-1.83-14.55Z" transform="translate(-0.5 -0.5)"/><path class="cls-6" d="M91.09,92.73c.24,1.75,1.89,13.35,1.79,14.32a1.17,1.17,0,0,1-1.2,1.13,1.33,1.33,0,0,0,1.89-1.05c.11-1-1.83-14.55-1.83-14.55Z" transform="translate(-0.5 -0.5)"/><path class="cls-5" d="M91.43,92.69S94.29,107.2,95,107.34c.52.1,2-.22,1.85-1.61-.09-1-4.58-13.5-4.58-13.5Z" transform="translate(-0.5 -0.5)"/><path class="cls-6" d="M91.65,92.56c.58,1.62,4.42,12.32,4.51,13.29a1.37,1.37,0,0,1-.94,1.49,1.52,1.52,0,0,0,1.62-1.63c-.09-1-4.58-13.5-4.58-13.5Z" transform="translate(-0.5 -0.5)"/><ellipse class="cls-4" cx="90.21" cy="89.48" rx="3.18" ry="4.11"/><path class="cls-6" d="M92.84,86.92A5.47,5.47,0,0,1,93,88c0,2.27-1.43,4.11-3.19,4.11a2.82,2.82,0,0,1-2.12-1c.46,2.2,2.2,3.49,3.9,2.91s2.71-2.85,2.25-5a4.44,4.44,0,0,0-1-2Z" transform="translate(-0.5 -0.5)"/><path class="cls-5" d="M90.93,87.52c.32.69-.06,1.15-.6,1.57s-1,.65-1.36,0a1.76,1.76,0,0,1,.3-2.05,1,1,0,0,1,1.59.4.61.61,0,0,1,.07.14Z" transform="translate(-0.5 -0.5)"/><path class="cls-5" d="M121.85,61.88C120.56,67.15,118.1,75,119,78.39c.1.37,1.44,1,1.74-.5,1-4.74,1.21-10.42,1.84-15.61Z" transform="translate(-0.5 -0.5)"/><path class="cls-6" d="M122,62c-.61,5.19-.86,10.87-1.8,15.6-.07.64-.53,1.08-1,1l-.1,0a.82.82,0,0,0,1.36,0,1.4,1.4,0,0,0,.25-.63c1-4.74,1.21-10.42,1.84-15.61Z" transform="translate(-0.5 -0.5)"/><path class="cls-5" d="M122.3,62.19c-.4,5.36-1.77,14.1-.6,16.29.11.21,1.56,0,1.68-1.35.4-4.55-.18-9.91-.36-14.84Z" transform="translate(-0.5 -0.5)"/><path class="cls-6" d="M122.49,62.22c.19,5,.74,10.35.39,14.92a1.48,1.48,0,0,1-1,1.4c.71.17,1.4-.45,1.52-1.37v0c.37-4.55-.19-9.91-.37-14.84Z" transform="translate(-0.5 -0.5)"/><path class="cls-5" d="M123,62.41c.21,4.88-.07,13.74,1.17,15a1.94,1.94,0,0,0,1.59-1.77c-.13-4.1-1.34-8.94-2-13.38Z" transform="translate(-0.5 -0.5)"/><path class="cls-6" d="M123.17,62.38c.71,4.47,1.91,9.34,2,13.48a1.83,1.83,0,0,1-.87,1.57,1.86,1.86,0,0,0,1.41-1.76c-.13-4.1-1.34-8.94-2-13.38Z" transform="translate(-0.5 -0.5)"/><path class="cls-5" d="M123.45,62.37c.84,4.14,2.16,12.28,3.39,12.9.16.09,1.6-1.13,1.37-2-.85-3.42-2.85-7.43-4.13-11.25C123.83,62.14,123.7,62.21,123.45,62.37Z" transform="translate(-0.5 -0.5)"/><path class="cls-6" d="M123.62,62.27c1.25,3.84,3.24,7.86,4.07,11.33a1.88,1.88,0,0,1-.67,1.6c.48-.27,1.39-1.17,1.19-2-.85-3.42-2.85-7.43-4.13-11.25Z" transform="translate(-0.5 -0.5)"/><path class="cls-4" d="M125.3,60.16c.09,2-1,3.63-2.35,3.54s-2.62-2.17-2.75-4.68.94-4.12,2.35-3.54S125.21,58.12,125.3,60.16Z" transform="translate(-0.5 -0.5)"/><path class="cls-6" d="M124.32,57.12a5.7,5.7,0,0,1,.13,1c.1,2.11-1,3.67-2.35,3.48a2.57,2.57,0,0,1-1.73-1.38c.39,2,1.42,3.42,2.58,3.48,1.4.07,2.45-1.52,2.35-3.54A6.23,6.23,0,0,0,124.32,57.12Z" transform="translate(-0.5 -0.5)"/><path class="cls-5" d="M122.81,57.18a1.08,1.08,0,0,1-.39,1.44c-.39.32-.78.48-1.09-.33s-.2-1.75.22-2S122.52,56.39,122.81,57.18Z" transform="translate(-0.5 -0.5)"/><path class="cls-5" d="M21.53,71.56c1.88,5,5.22,12.28,4.73,15.77a.92.92,0,0,1-1.77-.15C23,82.68,22.1,77.12,20.88,72.11Z" transform="translate(-0.5 -0.5)"/><path class="cls-6" d="M21.36,71.72c1.2,5,2.1,10.61,3.58,15.09a.89.89,0,0,0,1.11.79l.1,0c-.35.51-1.25.87-1.66-.36C23,82.68,22.1,77.12,20.88,72.11Z" transform="translate(-0.5 -0.5)"/><path class="cls-5" d="M21.12,72c1,5.22,3.37,13.61,2.46,16-.08.23-1.56.33-1.82-1-.89-4.41-1-9.82-1.34-14.74Z" transform="translate(-0.5 -0.5)"/><path class="cls-6" d="M20.93,72c.39,4.94.46,10.39,1.35,14.83a1.37,1.37,0,0,0,1.15,1.2c-.68.3-1.43-.17-1.66-1v-.06c-.89-4.41-1-9.82-1.34-14.74Z" transform="translate(-0.5 -0.5)"/><path class="cls-5" d="M20.45,72.31c.35,4.86,1.65,13.57.58,15.09A1.77,1.77,0,0,1,19.26,86c-.35-4.08.29-9.1.49-13.62Z" transform="translate(-0.5 -0.5)"/><path class="cls-6" d="M20.28,72.32c-.19,4.55-.81,9.6-.46,13.71a1.68,1.68,0,0,0,1.05,1.39A1.7,1.7,0,0,1,19.27,86c-.34-4.08.3-9.1.49-13.62Z" transform="translate(-0.5 -0.5)"/><path class="cls-5" d="M20,72.36c-.34,4.25-.73,12.55-1.88,13.41-.15.11-1.71-.82-1.6-1.75.45-3.54,2-7.9,2.8-11.92Z" transform="translate(-0.5 -0.5)"/><path class="cls-6" d="M19.83,72.29c-.81,4-2.3,8.4-2.74,12A1.73,1.73,0,0,0,18,85.71c-.51-.15-1.51-.87-1.42-1.69.45-3.54,2-7.9,2.8-11.92Z" transform="translate(-0.5 -0.5)"/><path class="cls-4" d="M17.92,70.55c.14,2,1.37,3.4,2.75,3.07S23,71,22.83,68.46s-1.4-3.88-2.74-3.07S17.78,68.5,17.92,70.55Z" transform="translate(-0.5 -0.5)"/><path class="cls-6" d="M18.54,67.33a9,9,0,0,0,0,1c.15,2.1,1.37,3.44,2.74,3a2.88,2.88,0,0,0,1.57-1.7c-.14,2-1,3.65-2.16,3.94-1.41.33-2.63-1-2.77-3A6.7,6.7,0,0,1,18.54,67.33Z" transform="translate(-0.5 -0.5)"/><path class="cls-5" d="M20,67.1a1,1,0,0,0,.57,1.36c.44.23.84.31,1-.55s0-1.76-.45-2S20.24,66.28,20,67.1Z" transform="translate(-0.5 -0.5)"/></g></svg>