<svg id="Layer_1" data-name="Layer 1" xmlns="http://www.w3.org/2000/svg" viewBox="0 0 285.18 132.63"><defs><style>.cls-1{fill:#e05146;}.cls-2{fill:#b6575d;}.cls-3{fill:#f99f1b;}.cls-4{fill:#fcb552;}.cls-5{fill:#f28a21;}</style></defs><path class="cls-1" d="M8.29,50.32C21.64,40.67,61.05,14.37,111.05.82a3.84,3.84,0,0,1,.59-.11c5.07-.52,72.59-6.65,161.54,29.34a3.66,3.66,0,0,1,1.6,5.56c-8.74,12-38.56,49.64-82.67,69.21a3.78,3.78,0,0,1-.94.28C185.29,106,128.24,113,8.88,56.6A3.66,3.66,0,0,1,8.29,50.32Z"/><path class="cls-2" d="M273.19,30.05q-5.43-2.21-10.76-4.19a232.66,232.66,0,0,1-39.41,36A96.61,96.61,0,0,1,154.65,79C127.49,75.56,84.89,65.56,25.24,39,17.78,43.63,12,47.62,8.29,50.32a3.66,3.66,0,0,0,.59,6.28C128.28,113,185.32,106,191.18,105.1a4.33,4.33,0,0,0,.93-.28C236.22,85.25,266,47.65,274.78,35.61A3.66,3.66,0,0,0,273.19,30.05Z"/><path class="cls-3" d="M189.29,97.64c36-8.7,71.46-48.09,86.07-63.21a3.68,3.68,0,0,0-2.18-4.38l-.42-.17C259.2,44,223.24,84.29,188.12,92.79,150.41,101.91,38.55,61,8.13,50.45a3.65,3.65,0,0,0-.56,5.1c28.63,10,118.82,43.66,165.86,43.66A68.6,68.6,0,0,0,189.29,97.64Z"/><path class="cls-4" d="M186.13,101.21s-12.88,26.67-11.69,28c.89,1,4.16,2.91,5.68.6,1.16-1.75,8.23-28,8.23-28Z"/><path class="cls-5" d="M186.71,101.37c-.92,3.4-7,25.92-8.1,27.54-.92,1.39-2.46,1.25-3.74.7,1.24,1,3.92,2.24,5.25.21,1.16-1.75,8.23-28,8.23-28Z"/><path class="cls-4" d="M187.54,101.69s-5.81,29.05-4.31,30c1.1.73,4.75,1.79,5.65-.84.67-2,1-29.15,1-29.15Z"/><path class="cls-5" d="M188.15,101.7c0,3.53-.34,26.86-1,28.7-.54,1.57-2.06,1.82-3.44,1.61,1.45.66,4.35,1.18,5.14-1.12.67-2,1-29.15,1-29.15Z"/><path class="cls-4" d="M189.73,102s-.1,29.62,1.56,30.31c1.22.51,5,.84,5.38-1.91.28-2.08-4.67-28.8-4.67-28.8Z"/><path class="cls-5" d="M190.33,101.88c.63,3.46,4.84,26.42,4.58,28.34-.23,1.65-1.68,2.18-3.07,2.24,1.55.37,4.5.33,4.83-2.08.28-2.08-4.67-28.8-4.67-28.8Z"/><path class="cls-4" d="M191.21,101.8s7.3,28.71,9.08,29c1.32.19,5.06-.44,4.73-3.19-.24-2.08-11.71-26.72-11.71-26.72Z"/><path class="cls-5" d="M191.76,101.55c1.49,3.2,11.3,24.38,11.52,26.3.2,1.65-1.07,2.54-2.4,2.94,1.59,0,4.43-.81,4.14-3.22-.24-2.08-11.71-26.72-11.71-26.72Z"/><circle class="cls-3" cx="189.38" cy="96.45" r="8.13" transform="translate(-12.73 162.16) rotate(-45)"/><path class="cls-5" d="M194.79,90.39a8.22,8.22,0,0,1,.29,2.12,8.13,8.13,0,0,1-13.55,6.06,8.13,8.13,0,1,0,13.26-8.18Z"/><path class="cls-4" d="M189.92,91.57c.83,1.38-.14,2.29-1.53,3.12s-2.64,1.28-3.47-.1a2.92,2.92,0,1,1,5-3Z"/><path class="cls-4" d="M268.87,40.86c-3.3,10.42-9.58,26-7.33,32.66.24.73,3.67,1.93,4.43-1,2.45-9.37,3.1-20.6,4.7-30.88C270,41.35,269.59,41.19,268.87,40.86Z"/><path class="cls-5" d="M269.34,41.08c-1.56,10.28-2.2,21.51-4.6,30.88a2.3,2.3,0,0,1-2.84,1.91A2.45,2.45,0,0,0,266,72.54c2.45-9.37,3.1-20.6,4.7-30.88Z"/><path class="cls-4" d="M270,41.46c-1,10.6-4.52,27.91-1.53,32.23.29.42,4,.07,4.31-2.67,1-9-.47-19.6-.94-29.35Z"/><path class="cls-5" d="M270.5,41.52c.48,9.8,1.88,20.49,1,29.52a3.17,3.17,0,0,1-2.56,2.78,3.35,3.35,0,0,0,3.9-2.8c.95-9-.47-19.6-.94-29.35Z"/><path class="cls-4" d="M271.77,41.9c.55,9.65-.18,27.18,3,29.74.33.27,4.14-1.15,4.05-3.51-.34-8.1-3.42-17.69-5.24-26.47Z"/><path class="cls-5" d="M272.24,41.84c1.81,8.85,4.86,18.47,5.18,26.67a3.61,3.61,0,0,1-2.24,3.11c1.21-.15,3.69-1.42,3.61-3.49-.34-8.1-3.42-17.69-5.24-26.47Z"/><path class="cls-4" d="M272.94,41.83c2.14,8.19,5.52,24.28,8.67,25.52.41.17,4.07-2.25,3.5-4-2.18-6.77-7.3-14.71-10.55-22.27C273.91,41.36,273.59,41.51,272.94,41.83Z"/><path class="cls-5" d="M273.37,41.62c3.21,7.6,8.27,15.56,10.41,22.41.34,1.11-.71,2.41-1.72,3.17,1.23-.52,3.55-2.31,3.05-3.87-2.18-6.77-7.3-14.71-10.55-22.27Z"/><path class="cls-3" d="M277.66,37.45c.24,4-2.45,7.18-6,7s-6.68-4.29-7-9.26,2.4-8.14,6-7S277.43,33.42,277.66,37.45Z"/><path class="cls-5" d="M275.16,31.43a9.4,9.4,0,0,1,.35,2c.24,4.17-2.46,7.26-6,6.89a6.6,6.6,0,0,1-4.43-2.74c1,3.93,3.62,6.77,6.6,6.89,3.56.14,6.25-3,6-7A10.68,10.68,0,0,0,275.16,31.43Z"/><path class="cls-4" d="M271.32,31.55c.75,1.54,0,2.24-1,2.86s-2,.94-2.78-.66-.51-3.46.55-4S270.57,30,271.32,31.55Z"/><path class="cls-4" d="M12.75,60c4.81,9.82,13.32,24.29,12.09,31.21-.13.76-3.34,2.45-4.52-.31C16.5,82,14.2,71,11.09,61.09Z"/><path class="cls-5" d="M12.32,60.31c3.06,9.94,5.36,21,9.13,29.86a2.29,2.29,0,0,0,3.09,1.47c-.89,1-3.19,1.71-4.22-.71C16.5,82,14.2,71,11.09,61.09Z"/><path class="cls-4" d="M11.7,60.8C14.28,71.13,20.31,87.73,18,92.44c-.22.46-4,.66-4.65-2C11.06,81.7,10.89,71,9.92,61.27Z"/><path class="cls-5" d="M11.23,60.92c1,9.77,1.18,20.55,3.43,29.34a3.19,3.19,0,0,0,2.94,2.37,3.33,3.33,0,0,1-4.26-2.19C11.06,81.7,10.89,71,9.92,61.27Z"/><path class="cls-4" d="M10,61.49c.89,9.62,4.21,26.85,1.48,29.85-.29.32-4.27-.53-4.52-2.87-.88-8.06.75-18,1.25-26.95Z"/><path class="cls-5" d="M9.56,61.5c-.47,9-2.07,19-1.17,27.14a3.65,3.65,0,0,0,2.68,2.75c-1.22,0-3.86-.87-4.08-2.92-.87-8.06.75-18,1.25-26.95Z"/><path class="cls-4" d="M8.87,61.59C8,70,7,86.42,4.08,88.12,3.7,88.34-.28,86.5,0,84.66c1.15-7,5-15.63,7.14-23.59C7.84,61.27,8.18,61.37,8.87,61.59Z"/><path class="cls-5" d="M8.42,61.45c-2.06,8-5.88,16.61-7,23.71C1.27,86.3,2.5,87.43,3.61,88,2.32,87.7-.25,86.27,0,84.66c1.15-7,5-15.63,7.14-23.59C7.66,61.21,7.91,61.29,8.42,61.45Z"/><path class="cls-3" d="M3.55,58c.36,4,3.49,6.73,7,6.07s6-5.23,5.52-10.2-3.58-7.68-7-6.07S3.18,53.94,3.55,58Z"/><path class="cls-5" d="M5.13,51.63a10.15,10.15,0,0,0,0,2.06c.38,4.16,3.5,6.81,7,5.91a6.61,6.61,0,0,0,4-3.36c-.37,4-2.58,7.23-5.51,7.79C7,64.69,3.91,62,3.55,58A10.66,10.66,0,0,1,5.13,51.63Z"/><path class="cls-4" d="M8.94,51.18c-.51,1.64.32,2.22,1.46,2.68s2.15.63,2.65-1.07,0-3.5-1.14-3.91S9.46,49.55,8.94,51.18Z"/></svg>