<svg id="Layer_1" data-name="Layer 1" xmlns="http://www.w3.org/2000/svg" viewBox="0 0 140.57 88.09"><defs><style>.cls-1{fill:#8fb0c3;}.cls-2{fill:#779eb4;}.cls-3{fill:#c6d5dd;}.cls-4{fill:#9a5e3f;}.cls-5{fill:#77432d;}.cls-6{fill:#ac7f6d;}</style></defs><path class="cls-1" d="M141.72,69S129,42.36,126.38,32.27c-1.88-7.25-25-14.2-54.54-14.2s-52.65,7-54.53,14.2C14.69,42.36,2,69,2,69c-.94,2.25-.2,5.22,1.49,6,44.48,21.23,92.28,21.23,136.76,0C141.92,74.22,142.66,71.25,141.72,69Z" transform="translate(-1.56 -2.86)"/><path class="cls-2" d="M141.72,69S129,42.36,126.38,32.27c-.79-3.05-5.33-6-12.52-8.48,2.59,7.86,8.42,20.82,11.84,28.23,2.5,5.4,1.31,12.88-2.58,15.95C103.86,83.16,36.57,82.27,2,68.87L2,69c-.94,2.25-.2,5.22,1.49,6,44.48,21.23,92.28,21.23,136.76,0C141.92,74.22,142.66,71.25,141.72,69Z" transform="translate(-1.56 -2.86)"/><path class="cls-3" d="M71.84,46.22c45.54,0,54.77-13.06,54.54-13.95-1.88-7.25-25-14.2-54.54-14.2s-52.65,7-54.53,14.2C17.08,33.16,23.87,46.22,71.84,46.22Z" transform="translate(-1.56 -2.86)"/><ellipse class="cls-2" cx="70.29" cy="29.13" rx="48.83" ry="12.18"/><path class="cls-3" d="M16.59,54.3c-3.72,8.14-9.49,13.49-11,12.8s1.79-7.17,5.51-15.31,5.82-15.85,7.33-15.16S20.31,46.16,16.59,54.3Z" transform="translate(-1.56 -2.86)"/><path class="cls-4" d="M119,25.88l-.08-.15c-.28-.47-1.63-2.84-3.35-5.91-1.4-2.5-6.66-3.79-9.47-4.31a4.3,4.3,0,0,1-2.74-1.76,26.48,26.48,0,0,0-4.85-5.19c-2.9-2.34-9.42-1.17-12.5-.44a4.38,4.38,0,0,1-3.07-.43,8.35,8.35,0,0,0-3.85-1.05,4.38,4.38,0,0,1-2.79-1C74.65,4.28,71.57,2.34,67.93,3a14.8,14.8,0,0,0-6.74,3.29,4.23,4.23,0,0,1-4.54.6C54.71,5.94,52,5.34,49.9,6.21a8.52,8.52,0,0,0-4.85,5.23,4.26,4.26,0,0,1-4,2.89,28.39,28.39,0,0,0-4.85.43,4.22,4.22,0,0,0-1.74.71c-2.32,1.67-3.61,4.88-4.2,6.79a4.26,4.26,0,0,1-1.81,2.34C22.39,28.38,23,32,23,32c0,6.73,21.86,12.18,48.83,12.18,23.9,0,43.79-4.28,48-9.94a3.5,3.5,0,0,0,.78-1.73c0-.2,0-.39.06-.49C121.49,29.91,119.32,26.37,119,25.88Z" transform="translate(-1.56 -2.86)"/><path class="cls-5" d="M119,25.88l-.08-.15c-.28-.47-1.63-2.84-3.35-5.91-.68-1.22-2.29-2.15-4.08-2.85.33.6.57,1,.67,1.18l.08.14c.32.49,2.33,4,1.69,6.14a8.44,8.44,0,0,1-.84,2.22c-4.22,5.65-24.11,9.94-48,9.94-17.83,0-33.42-2.39-41.95-6A3.56,3.56,0,0,0,23,32c0,6.73,21.86,12.18,48.83,12.18,23.9,0,43.79-4.28,48-9.94a3.5,3.5,0,0,0,.78-1.73c0-.2,0-.38.06-.49C121.49,29.91,119.32,26.37,119,25.88Z" transform="translate(-1.56 -2.86)"/><path class="cls-6" d="M104.55,15.25A4.3,4.3,0,0,0,107.29,17c2.34.43,6.39,1.41,8.48,3.17l-.2-.36c-1.4-2.5-6.66-3.79-9.47-4.31a4.29,4.29,0,0,1-2.17-1.1C104.16,14.71,104.37,15,104.55,15.25Z" transform="translate(-1.56 -2.86)"/><path class="cls-6" d="M24.2,33.49s-.62-3.61,5.41-7.39a4.22,4.22,0,0,0,1.81-2.34c.6-1.91,1.89-5.12,4.2-6.79a4.14,4.14,0,0,1,1.74-.71,28.39,28.39,0,0,1,4.85-.43,4.26,4.26,0,0,0,4-2.89,8.58,8.58,0,0,1,4.85-5.23c2.07-.87,4.81-.27,6.76.67a4.24,4.24,0,0,0,4.54-.6,14.71,14.71,0,0,1,6.73-3.29c3.65-.65,6.72,1.29,8.37,2.64a4.34,4.34,0,0,0,2.8,1,8.22,8.22,0,0,1,3.85,1,4.33,4.33,0,0,0,3.07.44c3.08-.73,9.59-1.9,12.49.44a25.72,25.72,0,0,1,3.36,3.28,25.85,25.85,0,0,0-4.55-4.78c-2.9-2.34-9.42-1.17-12.5-.44a4.38,4.38,0,0,1-3.07-.43,8.35,8.35,0,0,0-3.85-1.05,4.38,4.38,0,0,1-2.79-1C74.65,4.28,71.57,2.34,67.93,3a14.8,14.8,0,0,0-6.74,3.29,4.23,4.23,0,0,1-4.54.6C54.71,5.94,52,5.34,49.9,6.21a8.52,8.52,0,0,0-4.85,5.23,4.26,4.26,0,0,1-4,2.89,28.39,28.39,0,0,0-4.85.43,4.22,4.22,0,0,0-1.74.71c-2.32,1.67-3.61,4.88-4.2,6.79a4.26,4.26,0,0,1-1.81,2.34C22.39,28.38,23,32,23,32a4.38,4.38,0,0,0,1.63,3.13A3.47,3.47,0,0,1,24.2,33.49Z" transform="translate(-1.56 -2.86)"/><path class="cls-4" d="M99.43,16.29a21.63,21.63,0,0,0-7.59,2.17c-.69.31-1.07-.08-1-.87a5,5,0,0,0-1-3.56c-.44-.66-.33-1.2.43-1.29a21.69,21.69,0,0,0,7.59-2.17c.69-.32,1.06.08,1,.87a4.94,4.94,0,0,0,1,3.56C100.29,15.66,100.19,16.2,99.43,16.29Z" transform="translate(-1.56 -2.86)"/><path class="cls-6" d="M95.64,14.8a6.68,6.68,0,0,0-4,1.13c-.37.16-.55,0-.52-.35a2.35,2.35,0,0,0-.5-1.77c-.21-.28-.14-.51.25-.58a9.55,9.55,0,0,0,4-1.13c.37-.16.55,0,.52.36a2.33,2.33,0,0,0,.51,1.76C96.11,14.5,96,14.74,95.64,14.8Z" transform="translate(-1.56 -2.86)"/><path class="cls-5" d="M98.84,11.44c0-.79-.35-1.19-1-.87l-.48.22a4.86,4.86,0,0,0,1,3.31c.44.66.33,1.19-.43,1.28a21.34,21.34,0,0,0-7.11,1.95v.26c0,.79.35,1.18,1,.87a21.63,21.63,0,0,1,7.59-2.17c.76-.09.86-.63.42-1.29A4.94,4.94,0,0,1,98.84,11.44Z" transform="translate(-1.56 -2.86)"/><path class="cls-4" d="M53.23,13.81a21.64,21.64,0,0,0-7-3.67c-.73-.24-.73-.79-.16-1.34a5,5,0,0,0,1.72-3.28c.13-.79.58-1.1,1.2-.64a21.71,21.71,0,0,0,7,3.66c.73.25.72.79.16,1.35a4.93,4.93,0,0,0-1.72,3.28C54.29,14,53.85,14.26,53.23,13.81Z" transform="translate(-1.56 -2.86)"/><path class="cls-6" d="M51.52,10.12A6.68,6.68,0,0,0,47.86,8.2c-.37-.14-.39-.39-.13-.61A2.37,2.37,0,0,0,48.59,6c0-.35.25-.47.57-.25a9.59,9.59,0,0,0,3.66,1.92c.38.14.4.39.13.62a2.32,2.32,0,0,0-.85,1.62C52.06,10.22,51.85,10.34,51.52,10.12Z" transform="translate(-1.56 -2.86)"/><path class="cls-5" d="M56.15,9.89c.56-.56.57-1.1-.16-1.35l-.49-.17A4.88,4.88,0,0,0,54,11.47c-.14.78-.58,1.09-1.2.64a21.24,21.24,0,0,0-6.49-3.49c-.06.06-.12.11-.18.18-.57.55-.57,1.1.16,1.34a21.64,21.64,0,0,1,7,3.67c.62.45,1.06.14,1.2-.64A4.93,4.93,0,0,1,56.15,9.89Z" transform="translate(-1.56 -2.86)"/><path class="cls-4" d="M65.44,33.09a21.7,21.7,0,0,0-7.19,3.23c-.65.42-1.07.08-1.16-.71a5,5,0,0,0-1.52-3.37c-.53-.59-.5-1.14.24-1.34A21.7,21.7,0,0,0,63,27.67c.65-.42,1.07-.08,1.16.71a4.91,4.91,0,0,0,1.52,3.37C66.21,32.34,66.18,32.89,65.44,33.09Z" transform="translate(-1.56 -2.86)"/><path class="cls-6" d="M61.48,32.16a6.73,6.73,0,0,0-3.77,1.69c-.34.21-.54.07-.56-.28a2.32,2.32,0,0,0-.75-1.67c-.25-.25-.22-.49.16-.61a9.69,9.69,0,0,0,3.77-1.69c.34-.21.55-.07.57.28a2.32,2.32,0,0,0,.75,1.67C61.9,31.8,61.86,32,61.48,32.16Z" transform="translate(-1.56 -2.86)"/><path class="cls-5" d="M64.16,28.38c-.09-.79-.51-1.13-1.16-.71l-.44.28a4.89,4.89,0,0,0,1.49,3.12c.53.59.5,1.14-.24,1.34a21.41,21.41,0,0,0-6.75,3l0,.25c.09.79.51,1.13,1.16.71a21.7,21.7,0,0,1,7.19-3.23c.74-.2.77-.75.24-1.34A4.91,4.91,0,0,1,64.16,28.38Z" transform="translate(-1.56 -2.86)"/><path class="cls-4" d="M72.26,19a21.52,21.52,0,0,0-7.69,1.77c-.71.28-1.06-.14-1-.93a4.94,4.94,0,0,0-.83-3.6c-.41-.69-.27-1.21.49-1.27a21.73,21.73,0,0,0,7.69-1.77c.71-.28,1.06.13,1,.92a5,5,0,0,0,.83,3.61C73.16,18.4,73,18.93,72.26,19Z" transform="translate(-1.56 -2.86)"/><path class="cls-6" d="M68.56,17.3a6.71,6.71,0,0,0-4,.93c-.37.14-.55,0-.49-.38a2.36,2.36,0,0,0-.42-1.8c-.19-.28-.11-.52.28-.56a9.63,9.63,0,0,0,4-.92c.37-.14.55,0,.5.38a2.33,2.33,0,0,0,.41,1.79C69,17,69,17.26,68.56,17.3Z" transform="translate(-1.56 -2.86)"/><path class="cls-5" d="M71.92,14.11c.07-.79-.28-1.2-1-.92l-.49.19a4.9,4.9,0,0,0,.85,3.36c.4.68.27,1.21-.5,1.26a21.6,21.6,0,0,0-7.2,1.58,2.09,2.09,0,0,1,0,.25c-.07.79.28,1.21,1,.93A21.52,21.52,0,0,1,72.26,19c.76-.06.9-.59.49-1.27A5,5,0,0,1,71.92,14.11Z" transform="translate(-1.56 -2.86)"/><path class="cls-4" d="M107.33,29.54a21.77,21.77,0,0,0-7.8-1.16c-.77,0-1-.51-.59-1.22a5,5,0,0,0,.54-3.67c-.13-.78.19-1.22.92-1a21.77,21.77,0,0,0,7.8,1.16c.77,0,1,.51.59,1.22a5,5,0,0,0-.54,3.67C108.38,29.33,108.06,29.77,107.33,29.54Z" transform="translate(-1.56 -2.86)"/><path class="cls-6" d="M104.5,26.62a6.71,6.71,0,0,0-4.09-.61c-.4,0-.5-.23-.32-.54a2.37,2.37,0,0,0,.27-1.82c-.08-.34.08-.52.47-.41a9.9,9.9,0,0,0,4.08.61c.4,0,.5.23.33.53A2.33,2.33,0,0,0,105,26.2C105,26.54,104.88,26.73,104.5,26.62Z" transform="translate(-1.56 -2.86)"/><path class="cls-5" d="M108.79,24.88c.36-.71.18-1.22-.59-1.22h-.52a4.86,4.86,0,0,0-.44,3.43c.13.79-.19,1.23-.92,1A21.08,21.08,0,0,0,99,26.93c0,.07-.06.15-.1.23-.36.71-.18,1.22.59,1.22a21.77,21.77,0,0,1,7.8,1.16c.73.23,1-.21.92-1A5,5,0,0,1,108.79,24.88Z" transform="translate(-1.56 -2.86)"/><path class="cls-4" d="M86.87,32a21.77,21.77,0,0,0-7.8-1.16c-.77,0-.95-.51-.59-1.22A5,5,0,0,0,79,26c-.13-.78.19-1.22.92-1a21.77,21.77,0,0,0,7.8,1.16c.77,0,1,.51.59,1.22A5,5,0,0,0,87.79,31C87.92,31.82,87.6,32.26,86.87,32Z" transform="translate(-1.56 -2.86)"/><path class="cls-6" d="M84,29.11A6.72,6.72,0,0,0,80,28.5c-.4,0-.5-.23-.32-.54a2.37,2.37,0,0,0,.27-1.82c-.08-.34.08-.52.47-.41a9.74,9.74,0,0,0,4.08.61c.4,0,.5.23.33.53a2.38,2.38,0,0,0-.28,1.82C84.58,29,84.42,29.22,84,29.11Z" transform="translate(-1.56 -2.86)"/><path class="cls-5" d="M88.33,27.37c.36-.71.18-1.22-.59-1.22h-.52a4.86,4.86,0,0,0-.44,3.43c.13.79-.19,1.23-.92,1a21.11,21.11,0,0,0-7.28-1.16c0,.07-.06.15-.1.23-.36.71-.18,1.22.59,1.22A21.77,21.77,0,0,1,86.87,32c.73.23,1-.21.92-1A5,5,0,0,1,88.33,27.37Z" transform="translate(-1.56 -2.86)"/><path class="cls-4" d="M83.26,12.41a21.35,21.35,0,0,0-6.94-3.75c-.72-.26-.71-.8-.14-1.35a4.94,4.94,0,0,0,1.76-3.26c.15-.78.6-1.09,1.21-.63a21.45,21.45,0,0,0,6.94,3.75c.72.26.71.81.14,1.35a4.94,4.94,0,0,0-1.76,3.26C84.32,12.56,83.87,12.87,83.26,12.41Z" transform="translate(-1.56 -2.86)"/><path class="cls-6" d="M81.6,8.7a6.68,6.68,0,0,0-3.64-2c-.37-.14-.39-.39-.12-.61a2.36,2.36,0,0,0,.87-1.62c.05-.35.26-.47.59-.24a9.69,9.69,0,0,0,3.63,2c.37.14.39.39.12.61a2.34,2.34,0,0,0-.87,1.62C82.14,8.81,81.92,8.93,81.6,8.7Z" transform="translate(-1.56 -2.86)"/><path class="cls-5" d="M86.23,8.52c.57-.54.58-1.09-.14-1.35L85.6,7A4.8,4.8,0,0,0,84,10.07c-.15.79-.6,1.09-1.21.63a21,21,0,0,0-6.45-3.57l-.18.18c-.57.55-.58,1.09.14,1.35a21.35,21.35,0,0,1,6.94,3.75c.61.46,1.06.15,1.21-.63A4.94,4.94,0,0,1,86.23,8.52Z" transform="translate(-1.56 -2.86)"/><path class="cls-4" d="M42.43,27.12a21.48,21.48,0,0,0-6,5.12c-.5.58-1,.38-1.31-.36a5,5,0,0,0-2.41-2.81c-.67-.42-.79-.95-.14-1.35a21.65,21.65,0,0,0,6-5.12c.5-.58,1-.38,1.31.35a5,5,0,0,0,2.41,2.82C43,26.19,43.08,26.72,42.43,27.12Z" transform="translate(-1.56 -2.86)"/><path class="cls-6" d="M38.37,27.33A6.75,6.75,0,0,0,35.23,30c-.27.29-.5.22-.62-.11a2.33,2.33,0,0,0-1.19-1.4c-.31-.16-.34-.41,0-.63a9.65,9.65,0,0,0,3.14-2.68c.27-.29.51-.22.62.11a2.36,2.36,0,0,0,1.19,1.4C38.67,26.87,38.71,27.12,38.37,27.33Z" transform="translate(-1.56 -2.86)"/><path class="cls-5" d="M39.88,23c-.3-.73-.81-.93-1.31-.35l-.34.39a4.85,4.85,0,0,0,2.3,2.58c.68.42.8.95.15,1.35A21.24,21.24,0,0,0,35,31.65a2.29,2.29,0,0,0,.1.23c.3.74.81.94,1.31.36a21.48,21.48,0,0,1,6-5.12c.65-.4.53-.93-.14-1.35A5,5,0,0,1,39.88,23Z" transform="translate(-1.56 -2.86)"/></svg>