<svg xmlns="http://www.w3.org/2000/svg" viewBox="0 0 142.99 142.99"><defs><style>.cls-1{fill:#fdddb3;stroke:#fff;stroke-miterlimit:10;stroke-width:3.6px;}.cls-2{fill:#8fb0c3;}.cls-3{fill:#779eb4;}.cls-4{fill:#c6d5dd;}.cls-5{fill:#9a5e3f;}.cls-6{fill:#77432d;}.cls-7{fill:#ac7f6d;}</style></defs><g id="Layer_1" data-name="Layer 1"><circle class="cls-1" cx="71.5" cy="71.5" r="69.7"/></g><g id="Layer_2" data-name="Layer 2"><path class="cls-2" d="M123.19,91.24S113.86,71.73,112,64.33C110.57,59,93.64,53.93,72,53.93S33.43,59,32.05,64.33c-1.91,7.4-11.24,26.91-11.24,26.91-.68,1.65-.14,3.82,1.1,4.42,32.58,15.55,67.6,15.55,100.18,0C123.33,95.06,123.87,92.89,123.19,91.24Z" transform="translate(-0.5 -0.5)"/><path class="cls-3" d="M123.19,91.24S113.86,71.73,112,64.33c-.58-2.23-3.9-4.42-9.17-6.21,1.9,5.76,6.17,15.25,8.67,20.68,1.83,4,1,9.44-1.89,11.68-14.11,11.13-63.4,10.48-88.7.66l-.05.1c-.68,1.65-.14,3.82,1.1,4.42,32.58,15.55,67.6,15.55,100.18,0C123.33,95.06,123.87,92.89,123.19,91.24Z" transform="translate(-0.5 -0.5)"/><path class="cls-4" d="M72,74.55c33.36,0,40.12-9.56,40-10.22C110.57,59,93.64,53.93,72,53.93S33.43,59,32.05,64.33C31.88,65,36.86,74.55,72,74.55Z" transform="translate(-0.5 -0.5)"/><ellipse class="cls-3" cx="71.5" cy="63.63" rx="35.77" ry="8.92"/><path class="cls-4" d="M31.52,80.47c-2.72,6-6.94,9.88-8,9.38s1.31-5.25,4-11.22S31.76,67,32.87,67.53,34.25,74.51,31.52,80.47Z" transform="translate(-0.5 -0.5)"/><path class="cls-5" d="M106.55,59.65l-.07-.11c-.2-.35-1.19-2.08-2.45-4.33-1-1.83-4.88-2.77-6.94-3.15a3.16,3.16,0,0,1-2-1.29A18.92,18.92,0,0,0,91.53,47c-2.12-1.72-6.89-.86-9.15-.33a3.16,3.16,0,0,1-2.25-.32,6.07,6.07,0,0,0-2.82-.76,3.2,3.2,0,0,1-2-.74,7.77,7.77,0,0,0-6.13-1.94,10.91,10.91,0,0,0-4.93,2.41,3.09,3.09,0,0,1-3.33.44,6.5,6.5,0,0,0-4.94-.49,6.28,6.28,0,0,0-3.56,3.83,3.09,3.09,0,0,1-2.95,2.12,20.26,20.26,0,0,0-3.55.32,3,3,0,0,0-1.28.52,9.93,9.93,0,0,0-3.07,5,3.15,3.15,0,0,1-1.33,1.71c-4.42,2.77-4,5.42-4,5.42,0,4.93,16,8.92,35.77,8.92,17.51,0,32.08-3.13,35.17-7.28a2.56,2.56,0,0,0,.57-1.27,2.06,2.06,0,0,1,.05-.35C108.37,62.6,106.78,60,106.55,59.65Z" transform="translate(-0.5 -0.5)"/><path class="cls-6" d="M106.55,59.65l-.07-.11c-.2-.35-1.19-2.08-2.45-4.33a5.81,5.81,0,0,0-3-2.08l.49.86a.61.61,0,0,0,.07.1c.22.36,1.7,2.92,1.23,4.5a6.09,6.09,0,0,1-.62,1.63c-3.08,4.14-17.65,7.27-35.16,7.27-13.06,0-24.49-1.74-30.73-4.35a2.5,2.5,0,0,0-.09,1c0,4.93,16,8.92,35.77,8.92,17.51,0,32.08-3.13,35.17-7.28a2.56,2.56,0,0,0,.57-1.27,2.06,2.06,0,0,1,.05-.35C108.37,62.6,106.78,60,106.55,59.65Z" transform="translate(-0.5 -0.5)"/><path class="cls-7" d="M96,51.87a3.16,3.16,0,0,0,2,1.28c1.71.32,4.68,1,6.21,2.32l-.15-.26c-1-1.83-4.88-2.77-6.94-3.15a3.27,3.27,0,0,1-1.59-.81C95.67,51.47,95.83,51.68,96,51.87Z" transform="translate(-0.5 -0.5)"/><path class="cls-7" d="M37.1,65.23s-.45-2.65,4-5.42a3.09,3.09,0,0,0,1.32-1.71c.44-1.4,1.38-3.75,3.08-5a3.1,3.1,0,0,1,1.27-.53,20.62,20.62,0,0,1,3.55-.31,3.14,3.14,0,0,0,3-2.12,6.24,6.24,0,0,1,3.55-3.83,6.49,6.49,0,0,1,5,.49,3.08,3.08,0,0,0,3.32-.44A10.9,10.9,0,0,1,70,44a7.74,7.74,0,0,1,6.13,1.94,3.2,3.2,0,0,0,2,.74,6,6,0,0,1,2.82.76,3.2,3.2,0,0,0,2.25.32c2.25-.53,7-1.39,9.15.32a18.86,18.86,0,0,1,2.46,2.41A18.68,18.68,0,0,0,91.53,47c-2.12-1.72-6.89-.86-9.15-.33a3.16,3.16,0,0,1-2.25-.32,6.07,6.07,0,0,0-2.82-.76,3.2,3.2,0,0,1-2-.74,7.77,7.77,0,0,0-6.13-1.94,10.91,10.91,0,0,0-4.93,2.41,3.09,3.09,0,0,1-3.33.44,6.5,6.5,0,0,0-4.94-.49,6.28,6.28,0,0,0-3.56,3.83,3.09,3.09,0,0,1-2.95,2.12,20.26,20.26,0,0,0-3.55.32,3,3,0,0,0-1.28.52,9.93,9.93,0,0,0-3.07,5,3.15,3.15,0,0,1-1.33,1.71c-4.42,2.77-4,5.42-4,5.42a3.23,3.23,0,0,0,1.19,2.29A2.5,2.5,0,0,1,37.1,65.23Z" transform="translate(-0.5 -0.5)"/><path class="cls-5" d="M92.21,52.63a15.91,15.91,0,0,0-5.56,1.58c-.51.24-.78-.05-.76-.63A3.61,3.61,0,0,0,85.14,51c-.32-.48-.24-.88.32-.95A15.79,15.79,0,0,0,91,48.44c.51-.23.78.06.77.64a3.62,3.62,0,0,0,.74,2.6C92.84,52.17,92.76,52.56,92.21,52.63Z" transform="translate(-0.5 -0.5)"/><path class="cls-7" d="M89.44,51.54a4.82,4.82,0,0,0-2.91.83c-.27.11-.41,0-.38-.26a1.78,1.78,0,0,0-.37-1.3c-.16-.2-.11-.38.18-.42a7.13,7.13,0,0,0,2.91-.83c.27-.12.4,0,.38.26a1.71,1.71,0,0,0,.37,1.29C89.78,51.32,89.72,51.49,89.44,51.54Z" transform="translate(-0.5 -0.5)"/><path class="cls-6" d="M91.78,49.08c0-.58-.26-.87-.77-.64l-.35.16A3.58,3.58,0,0,0,91.41,51c.32.48.24.87-.31.94a15.64,15.64,0,0,0-5.21,1.43v.19c0,.58.25.87.76.63a15.91,15.91,0,0,1,5.56-1.58c.55-.07.63-.46.31-1A3.62,3.62,0,0,1,91.78,49.08Z" transform="translate(-0.5 -0.5)"/><path class="cls-5" d="M58.37,50.81a15.89,15.89,0,0,0-5.12-2.68c-.53-.19-.53-.59-.11-1a3.63,3.63,0,0,0,1.25-2.4c.1-.58.43-.81.88-.47A16,16,0,0,0,60.39,47c.53.18.53.58.11,1a3.68,3.68,0,0,0-1.26,2.4C59.14,50.91,58.82,51.14,58.37,50.81Z" transform="translate(-0.5 -0.5)"/><path class="cls-7" d="M57.11,48.11a4.85,4.85,0,0,0-2.68-1.41c-.27-.1-.29-.28-.09-.45A1.69,1.69,0,0,0,55,45.06c0-.26.19-.35.43-.18a6.88,6.88,0,0,0,2.68,1.4c.27.11.29.29.09.45a1.71,1.71,0,0,0-.62,1.2C57.51,48.18,57.35,48.27,57.11,48.11Z" transform="translate(-0.5 -0.5)"/><path class="cls-6" d="M60.5,47.94c.42-.41.42-.81-.11-1L60,46.82a3.56,3.56,0,0,0-1.13,2.27c-.1.58-.43.8-.88.47A15.39,15.39,0,0,0,53.26,47l-.12.13c-.42.4-.42.8.11,1a15.89,15.89,0,0,1,5.12,2.68c.45.33.77.1.87-.47A3.68,3.68,0,0,1,60.5,47.94Z" transform="translate(-0.5 -0.5)"/><path class="cls-5" d="M67.31,64.94A15.75,15.75,0,0,0,62,67.3c-.47.31-.78.06-.85-.52a3.57,3.57,0,0,0-1.11-2.47c-.39-.43-.36-.83.17-1A15.88,15.88,0,0,0,65.52,61c.48-.3.79-.06.85.52A3.7,3.7,0,0,0,67.48,64C67.87,64.39,67.85,64.79,67.31,64.94Z" transform="translate(-0.5 -0.5)"/><path class="cls-7" d="M64.41,64.25a4.89,4.89,0,0,0-2.76,1.24c-.25.15-.4.05-.41-.2a1.78,1.78,0,0,0-.55-1.23c-.19-.18-.16-.36.12-.44a7.29,7.29,0,0,0,2.76-1.24c.25-.16.4-.06.41.2a1.7,1.7,0,0,0,.55,1.23C64.72,64,64.69,64.17,64.41,64.25Z" transform="translate(-0.5 -0.5)"/><path class="cls-6" d="M66.37,61.48c-.06-.58-.37-.82-.85-.52l-.32.21a3.58,3.58,0,0,0,1.09,2.29c.39.43.37.83-.17,1a15.46,15.46,0,0,0-5,2.16,1.1,1.1,0,0,1,0,.18c.07.58.38.83.85.52a15.75,15.75,0,0,1,5.27-2.36c.54-.15.56-.55.17-1A3.7,3.7,0,0,1,66.37,61.48Z" transform="translate(-0.5 -0.5)"/><path class="cls-5" d="M72.31,54.6a16,16,0,0,0-5.63,1.3c-.52.21-.78-.1-.73-.68a3.69,3.69,0,0,0-.61-2.64c-.3-.5-.2-.88.36-.93a15.83,15.83,0,0,0,5.63-1.29c.52-.21.78.09.73.67a3.61,3.61,0,0,0,.61,2.65C73,54.18,72.86,54.56,72.31,54.6Z" transform="translate(-0.5 -0.5)"/><path class="cls-7" d="M69.59,53.37a4.86,4.86,0,0,0-2.94.68c-.28.1-.41,0-.37-.28a1.77,1.77,0,0,0-.3-1.32c-.15-.21-.09-.38.2-.41a7,7,0,0,0,2.95-.68c.28-.1.41,0,.37.28A1.73,1.73,0,0,0,69.8,53C70,53.17,69.89,53.34,69.59,53.37Z" transform="translate(-0.5 -0.5)"/><path class="cls-6" d="M72.06,51c0-.58-.21-.88-.73-.67L71,50.5A3.6,3.6,0,0,0,71.59,53c.3.5.2.89-.36.93A15.71,15.71,0,0,0,66,55a1.09,1.09,0,0,0,0,.18c0,.58.21.89.73.68a16,16,0,0,1,5.63-1.3c.55,0,.65-.42.36-.92A3.61,3.61,0,0,1,72.06,51Z" transform="translate(-0.5 -0.5)"/><path class="cls-5" d="M98,62.34a15.82,15.82,0,0,0-5.71-.86c-.56,0-.69-.37-.43-.89a3.71,3.71,0,0,0,.4-2.69c-.1-.57.14-.89.67-.73a15.69,15.69,0,0,0,5.72.86c.56,0,.69.37.43.89a3.61,3.61,0,0,0-.4,2.69C98.76,62.18,98.53,62.5,98,62.34Z" transform="translate(-0.5 -0.5)"/><path class="cls-7" d="M95.92,60.19a5,5,0,0,0-3-.44c-.29,0-.37-.17-.24-.4a1.72,1.72,0,0,0,.2-1.33c-.06-.25.06-.38.34-.3a7.32,7.32,0,0,0,3,.44c.29,0,.36.17.23.4a1.72,1.72,0,0,0-.2,1.33C96.32,60.14,96.2,60.27,95.92,60.19Z" transform="translate(-0.5 -0.5)"/><path class="cls-6" d="M99.07,58.92c.26-.52.13-.89-.43-.89h-.38a3.54,3.54,0,0,0-.33,2.51c.1.58-.14.9-.67.73a15.59,15.59,0,0,0-5.33-.85l-.08.17c-.26.52-.13.89.43.89a15.82,15.82,0,0,1,5.71.86c.54.16.77-.16.68-.73A3.61,3.61,0,0,1,99.07,58.92Z" transform="translate(-0.5 -0.5)"/><path class="cls-5" d="M83,64.16a15.9,15.9,0,0,0-5.72-.85c-.56,0-.69-.38-.43-.9a3.59,3.59,0,0,0,.4-2.68c-.1-.57.14-.9.67-.73a15.9,15.9,0,0,0,5.72.85c.56,0,.69.38.43.9a3.59,3.59,0,0,0-.4,2.68C83.78,64,83.54,64.33,83,64.16Z" transform="translate(-0.5 -0.5)"/><path class="cls-7" d="M80.93,62a4.91,4.91,0,0,0-3-.45c-.29,0-.36-.17-.24-.39a1.73,1.73,0,0,0,.2-1.33c-.05-.25.06-.39.34-.31a7.16,7.16,0,0,0,3,.45c.29,0,.36.17.23.39a1.68,1.68,0,0,0-.19,1.33C81.33,62,81.22,62.1,80.93,62Z" transform="translate(-0.5 -0.5)"/><path class="cls-6" d="M84.08,60.75c.26-.52.13-.9-.43-.9h-.38a3.62,3.62,0,0,0-.33,2.52c.1.57-.13.89-.67.73a15.61,15.61,0,0,0-5.33-.86l-.08.17c-.26.52-.13.9.43.9a15.9,15.9,0,0,1,5.72.85c.53.17.77-.16.67-.73A3.59,3.59,0,0,1,84.08,60.75Z" transform="translate(-0.5 -0.5)"/><path class="cls-5" d="M80.36,49.78A15.65,15.65,0,0,0,75.28,47c-.53-.19-.52-.59-.1-1a3.68,3.68,0,0,0,1.29-2.39c.11-.57.44-.79.88-.46A15.91,15.91,0,0,0,82.44,46c.52.19.52.59.1,1a3.61,3.61,0,0,0-1.29,2.38C81.14,49.9,80.81,50.12,80.36,49.78Z" transform="translate(-0.5 -0.5)"/><path class="cls-7" d="M79.15,47.06a4.92,4.92,0,0,0-2.67-1.43c-.27-.11-.28-.29-.09-.46A1.67,1.67,0,0,0,77,44c0-.26.19-.34.43-.17a7.15,7.15,0,0,0,2.66,1.44c.27.1.29.28.09.45a1.71,1.71,0,0,0-.64,1.18C79.54,47.15,79.38,47.23,79.15,47.06Z" transform="translate(-0.5 -0.5)"/><path class="cls-6" d="M82.54,46.94c.42-.4.42-.8-.1-1l-.36-.13a3.52,3.52,0,0,0-1.16,2.25c-.11.58-.44.8-.88.46a15.66,15.66,0,0,0-4.73-2.61l-.13.13c-.42.4-.43.8.1,1a15.65,15.65,0,0,1,5.08,2.74c.45.34.78.12.89-.46A3.61,3.61,0,0,1,82.54,46.94Z" transform="translate(-0.5 -0.5)"/><path class="cls-5" d="M50.46,60.56a15.84,15.84,0,0,0-4.4,3.75c-.36.43-.73.28-1-.26A3.58,3.58,0,0,0,43.34,62c-.49-.31-.58-.7-.11-1a15.84,15.84,0,0,0,4.4-3.75c.36-.43.73-.28,1,.26a3.65,3.65,0,0,0,1.76,2.06C50.84,59.88,50.93,60.26,50.46,60.56Z" transform="translate(-0.5 -0.5)"/><path class="cls-7" d="M47.48,60.72a4.92,4.92,0,0,0-2.3,2c-.2.22-.37.17-.45-.08a1.74,1.74,0,0,0-.88-1c-.22-.12-.25-.3,0-.46a7.07,7.07,0,0,0,2.3-2c.19-.21.37-.16.45.08a1.7,1.7,0,0,0,.88,1C47.7,60.38,47.73,60.56,47.48,60.72Z" transform="translate(-0.5 -0.5)"/><path class="cls-6" d="M48.59,57.51c-.23-.54-.6-.69-1-.26l-.25.28a3.57,3.57,0,0,0,1.68,1.9c.5.3.59.69.11,1A15.55,15.55,0,0,0,45,63.88c0,.06,0,.11.07.17.23.54.6.69,1,.26a15.84,15.84,0,0,1,4.4-3.75c.47-.3.38-.68-.11-1A3.65,3.65,0,0,1,48.59,57.51Z" transform="translate(-0.5 -0.5)"/></g></svg>